<svg width="42" height="40" viewBox="0 0 42 40" fill="none" xmlns="http://www.w3.org/2000/svg">
<path d="M13.949 32.2079C13.949 32.3734 13.7575 32.5057 13.516 32.5057C13.2412 32.5305 13.0497 32.3982 13.0497 32.2079C13.0497 32.0425 13.2412 31.9102 13.4827 31.9102C13.7325 31.8854 13.949 32.0177 13.949 32.2079ZM11.3593 31.8357C11.301 32.0012 11.4676 32.1914 11.7174 32.241C11.9339 32.3237 12.1837 32.241 12.2337 32.0756C12.2836 31.9102 12.1254 31.7199 11.8756 31.6455C11.6591 31.5876 11.4176 31.6703 11.3593 31.8357ZM15.0399 31.6951C14.7984 31.753 14.6319 31.9102 14.6569 32.1004C14.6818 32.2658 14.8983 32.3734 15.1482 32.3155C15.3897 32.2576 15.5562 32.1004 15.5312 31.935C15.5062 31.7778 15.2814 31.6703 15.0399 31.6951ZM20.5192 0C8.9694 0 0.134277 8.70954 0.134277 20.1817C0.134277 29.3544 5.94664 37.2037 14.2488 39.9663C15.3147 40.1565 15.6894 39.5031 15.6894 38.9655C15.6894 38.4527 15.6644 35.6239 15.6644 33.887C15.6644 33.887 9.83543 35.1277 8.61134 31.4222C8.61134 31.4222 7.66204 29.0153 6.29638 28.3949C6.29638 28.3949 4.38946 27.0964 6.42962 27.1212C6.42962 27.1212 8.50308 27.2866 9.6439 29.2551C11.4676 32.4478 14.5236 31.5297 15.7144 30.9838C15.9059 29.6604 16.4472 28.7423 17.0468 28.1964C12.3919 27.6836 7.69535 27.0136 7.69535 19.0568C7.69535 16.7822 8.32821 15.6408 9.66056 14.1851C9.44405 13.6474 8.73624 11.4308 9.87706 8.56893C11.6174 8.03131 15.6228 10.8021 15.6228 10.8021C17.2882 10.339 19.0786 10.0991 20.8523 10.0991C22.626 10.0991 24.4163 10.339 26.0817 10.8021C26.0817 10.8021 30.0871 8.02304 31.8275 8.56893C32.9683 11.439 32.2605 13.6474 32.044 14.1851C33.3763 15.6491 34.1924 16.7905 34.1924 19.0568C34.1924 27.0385 29.2877 27.6753 24.6328 28.1964C25.3989 28.8498 26.0484 30.0905 26.0484 32.0342C26.0484 34.8216 26.0234 38.2707 26.0234 38.9489C26.0234 39.4866 26.4065 40.14 27.464 39.9498C35.7912 37.2037 41.437 29.3544 41.437 20.1817C41.437 8.70954 32.069 0 20.5192 0ZM8.22829 28.5273C8.12003 28.61 8.14501 28.8002 8.28658 28.9574C8.41981 29.0897 8.61133 29.1476 8.71959 29.0401C8.82784 28.9574 8.80286 28.7671 8.6613 28.61C8.52806 28.4776 8.33654 28.4197 8.22829 28.5273ZM7.32895 27.8573C7.27066 27.9648 7.35393 28.0972 7.52048 28.1799C7.65371 28.2626 7.82025 28.2378 7.87854 28.122C7.93683 28.0145 7.85356 27.8821 7.68702 27.7994C7.52048 27.7498 7.38724 27.7746 7.32895 27.8573ZM10.027 30.8018C9.89372 30.9094 9.94368 31.1575 10.1352 31.3147C10.3267 31.5049 10.5682 31.5297 10.6765 31.3974C10.7847 31.2898 10.7348 31.0417 10.5682 30.8846C10.385 30.6943 10.1352 30.6695 10.027 30.8018ZM9.07766 29.586C8.94442 29.6687 8.94442 29.8837 9.07766 30.074C9.21089 30.2642 9.43573 30.3469 9.54398 30.2642C9.67721 30.1567 9.67721 29.9416 9.54398 29.7514C9.4274 29.5612 9.21089 29.4785 9.07766 29.586Z" fill="black"/>
</svg>
