<svg width="51" height="40" viewBox="0 0 51 40" fill="none" xmlns="http://www.w3.org/2000/svg">
<path d="M50.1344 4.73234C48.3241 5.53568 46.3796 6.07876 44.3351 6.32286C46.4217 5.07341 48.0201 3.09346 48.7749 0.737005C46.7928 1.91423 44.6236 2.743 42.3616 3.1873C40.5207 1.22508 37.8956 0 34.9914 0C29.4169 0 24.8959 4.51912 24.8959 10.0969C24.8959 10.8872 24.9849 11.6582 25.156 12.3985C16.7644 11.9767 9.32458 7.95704 4.34475 1.84909C3.4752 3.34083 2.97748 5.07523 2.97748 6.92576C2.97748 10.4283 4.76024 13.5187 7.4691 15.3289C5.8655 15.2792 4.29709 14.8464 2.89498 14.0666V14.1941C2.89498 19.0867 6.37487 23.1662 10.9942 24.094C10.1456 24.3265 9.25512 24.448 8.33383 24.448C7.68245 24.448 7.05049 24.3863 6.43313 24.2702C7.71803 28.2803 11.447 31.1992 15.864 31.2817C12.4084 33.9906 8.05415 35.6053 3.32493 35.6053C2.51038 35.6053 1.70535 35.5567 0.915039 35.4615C5.38412 38.3271 10.6904 40 16.3927 40C34.9639 40 45.1206 24.6145 45.1206 11.2721C45.1206 10.834 45.111 10.3993 45.0898 9.96605C47.0687 8.53473 48.7769 6.76251 50.1344 4.73234Z" fill="#2DAAE1"/>
</svg>
