<?xml version="1.0" encoding="utf-8"?>
<!-- Generator: Adobe Illustrator 25.2.3, SVG Export Plug-In . SVG Version: 6.00 Build 0)  -->
<svg version="1.1" id="Layer_1" xmlns="http://www.w3.org/2000/svg" xmlns:xlink="http://www.w3.org/1999/xlink" x="0px" y="0px"
	 viewBox="0 0 170.5 171.1" style="enable-background:new 0 0 170.5 171.1;" xml:space="preserve">
<style type="text/css">
	.st0{fill:#231F20;}
	.st1{fill:#FFFFFF;stroke:#FFFFFF;stroke-width:0.5;stroke-miterlimit:10;}
	.st2{fill:#FFFFFF;}
</style>
<g>
	<g>
		<ellipse class="st0" cx="85.1" cy="85.5" rx="84.4" ry="84.4"/>
	</g>
</g>
<path class="st1" d="M83.9,141.6c-29,0-60.1-6.8-60.1-19.3s31.1-18.2,60.1-18.2s60.1,5.7,60.1,18.2
	C144.1,134.8,112.9,141.6,83.9,141.6z M83.9,111.3c-14.8,0-28.6,1.5-39.1,4.2c-11.4,3-13.9,6.1-13.9,6.8c0,0.7,2.5,3.9,13.9,6.8
	c10.3,2.7,24.3,4.2,39.1,4.2s28.6-1.5,39.1-4.2c11.4-3,13.9-6.1,13.9-6.8c0-0.7-2.5-3.9-13.9-6.8C112.7,112.8,98.7,111.3,83.9,111.3
	z"/>
<path class="st0" d="M48.9,114.9c9.6-1.8,33.1-9.4,43.6-14.1l27.1,3.2c-4.4,4.1-7.5,7.7-11.5,11L48.9,114.9z"/>
<path class="st1" d="M83.9,68.1c-29,0-60.1-6.8-60.1-19.3S55,29.5,83.9,29.5S144,36.3,144,48.8C144.1,61.3,112.9,68.1,83.9,68.1z
	 M83.9,37.8c-14.8,0-28.6,1.5-39.1,4.2C33.5,45,31,48.2,31,48.8s2.5,3.9,13.9,6.8c10.3,2.7,24.3,4.2,39.1,4.2s28.6-1.5,39.1-4.2
	c11.4-3,13.9-6.1,13.9-6.8S134.4,45,123,42C112.7,39.3,98.7,37.8,83.9,37.8z"/>
<path class="st2" d="M135.1,80.4c-41,48-66.4,54.6-72.1,54.6c-0.3,0-30.9-6.7-31-6.7l-1-6C55.3,119.7,100.2,111.5,135.1,80.4z"/>
<path class="st2" d="M92.6,98.6c8.5-4,29.6-23.6,27.3-37.3L144,48.8C144.1,81.2,99.7,94.7,92.6,98.6z"/>
</svg>
