<svg width="26" height="24" viewBox="0 0 26 24" fill="none" xmlns="http://www.w3.org/2000/svg">
<path d="M8.76543 19.3248C8.76543 19.424 8.65051 19.5034 8.50562 19.5034C8.34074 19.5183 8.22583 19.4389 8.22583 19.3248C8.22583 19.2255 8.34074 19.1461 8.48563 19.1461C8.63552 19.1312 8.76543 19.2106 8.76543 19.3248ZM7.21158 19.1014C7.1766 19.2007 7.27653 19.3148 7.42642 19.3446C7.55632 19.3942 7.70621 19.3446 7.73619 19.2454C7.76617 19.1461 7.67124 19.032 7.52135 18.9873C7.39144 18.9526 7.24655 19.0022 7.21158 19.1014ZM9.41994 19.0171C9.27505 19.0518 9.17512 19.1461 9.19011 19.2603C9.2051 19.3595 9.335 19.424 9.48489 19.3893C9.62979 19.3545 9.72971 19.2603 9.71472 19.161C9.69973 19.0667 9.56483 19.0022 9.41994 19.0171ZM12.7075 0C5.77764 0 0.476562 5.22573 0.476562 12.109C0.476562 17.6126 3.96398 22.3222 8.94529 23.9798C9.58482 24.0939 9.80965 23.7019 9.80965 23.3793C9.80965 23.0716 9.79466 21.3744 9.79466 20.3322C9.79466 20.3322 6.29725 21.0766 5.5628 18.8533C5.5628 18.8533 4.99322 17.4092 4.17383 17.037C4.17383 17.037 3.02967 16.2578 4.25377 16.2727C4.25377 16.2727 5.49785 16.372 6.18234 17.5531C7.27653 19.4687 9.11017 18.9178 9.82464 18.5903C9.93956 17.7963 10.2643 17.2454 10.6241 16.9179C7.83112 16.6102 5.0132 16.2082 5.0132 11.4341C5.0132 10.0693 5.39292 9.38447 6.19233 8.51103C6.06243 8.18846 5.63774 6.85846 6.32224 5.14136C7.36646 4.81878 9.76968 6.48129 9.76968 6.48129C10.7689 6.20338 11.8431 6.05946 12.9074 6.05946C13.9716 6.05946 15.0458 6.20338 16.045 6.48129C16.045 6.48129 18.4483 4.81382 19.4925 5.14136C20.177 6.86342 19.7523 8.18846 19.6224 8.51103C20.4218 9.38943 20.9114 10.0743 20.9114 11.4341C20.9114 16.2231 17.9686 16.6052 15.1757 16.9179C15.6353 17.3099 16.0251 18.0543 16.0251 19.2205C16.0251 20.893 16.0101 22.9624 16.0101 23.3694C16.0101 23.6919 16.2399 24.084 16.8744 23.9699C21.8707 22.3222 25.2582 17.6126 25.2582 12.109C25.2582 5.22573 19.6374 0 12.7075 0ZM5.33297 17.1164C5.26802 17.166 5.283 17.2801 5.36794 17.3744C5.44788 17.4538 5.5628 17.4886 5.62775 17.424C5.6927 17.3744 5.67771 17.2603 5.59277 17.166C5.51283 17.0866 5.39792 17.0518 5.33297 17.1164ZM4.79337 16.7144C4.75839 16.7789 4.80836 16.8583 4.90828 16.9079C4.98822 16.9576 5.08815 16.9427 5.12312 16.8732C5.1581 16.8087 5.10813 16.7293 5.00821 16.6796C4.90828 16.6499 4.82834 16.6648 4.79337 16.7144ZM6.41217 18.4811C6.33223 18.5456 6.36221 18.6945 6.47712 18.7888C6.59204 18.9029 6.73693 18.9178 6.80188 18.8384C6.86683 18.7739 6.83685 18.625 6.73693 18.5307C6.62701 18.4166 6.47712 18.4017 6.41217 18.4811ZM5.84259 17.7516C5.76265 17.8012 5.76265 17.9302 5.84259 18.0444C5.92253 18.1585 6.05743 18.2082 6.12238 18.1585C6.20232 18.094 6.20232 17.965 6.12238 17.8508C6.05243 17.7367 5.92253 17.6871 5.84259 17.7516Z" fill="#F6F7F9"/>
</svg>
