<svg width="41" height="40" viewBox="0 0 41 40" fill="none" xmlns="http://www.w3.org/2000/svg">
<path d="M9.06927 25.2866C9.06927 27.6114 7.17523 29.4904 4.83175 29.4904C2.48828 29.4904 0.594238 27.6114 0.594238 25.2866C0.594238 22.9617 2.48828 21.0828 4.83175 21.0828H9.06927V25.2866Z" fill="#E01E5A"/>
<path d="M11.1885 25.2866C11.1885 22.9617 13.0825 21.0828 15.426 21.0828C17.7695 21.0828 19.6635 22.9617 19.6635 25.2866V35.7961C19.6635 38.121 17.7695 40 15.426 40C13.0825 40 11.1885 38.121 11.1885 35.7961V25.2866Z" fill="#E01E5A"/>
<path d="M15.426 8.40764C13.0825 8.40764 11.1885 6.52866 11.1885 4.20382C11.1885 1.87898 13.0825 0 15.426 0C17.7695 0 19.6635 1.87898 19.6635 4.20382V8.40764H15.426Z" fill="#36C5F0"/>
<path d="M15.4259 10.5415C17.7694 10.5415 19.6634 12.4205 19.6634 14.7453C19.6634 17.0702 17.7694 18.9491 15.4259 18.9491H4.80001C2.45654 18.9491 0.5625 17.0702 0.5625 14.7453C0.5625 12.4205 2.45654 10.5415 4.80001 10.5415H15.4259Z" fill="#36C5F0"/>
<path d="M32.4082 14.7453C32.4082 12.4205 34.3022 10.5415 36.6457 10.5415C38.9892 10.5415 40.8832 12.4205 40.8832 14.7453C40.8832 17.0702 38.9892 18.9491 36.6457 18.9491H32.4082V14.7453Z" fill="#2EB67D"/>
<path d="M30.2895 14.7452C30.2895 17.0701 28.3954 18.949 26.052 18.949C23.7085 18.949 21.8145 17.0701 21.8145 14.7452V4.20382C21.8145 1.87898 23.7085 0 26.052 0C28.3954 0 30.2895 1.87898 30.2895 4.20382V14.7452Z" fill="#2EB67D"/>
<path d="M26.052 31.5923C28.3954 31.5923 30.2895 33.4713 30.2895 35.7961C30.2895 38.1209 28.3954 39.9999 26.052 39.9999C23.7085 39.9999 21.8145 38.1209 21.8145 35.7961V31.5923H26.052Z" fill="#ECB22E"/>
<path d="M26.052 29.4904C23.7085 29.4904 21.8145 27.6114 21.8145 25.2866C21.8145 22.9617 23.7085 21.0828 26.052 21.0828H36.6779C39.0213 21.0828 40.9154 22.9617 40.9154 25.2866C40.9154 27.6114 39.0213 29.4904 36.6779 29.4904H26.052Z" fill="#ECB22E"/>
</svg>
